<?xml version="1.0" encoding="UTF-8" standalone="no" ?>
<!DOCTYPE svg PUBLIC "-//W3C//DTD SVG 1.1//EN" "http://www.w3.org/Graphics/SVG/1.1/DTD/svg11.dtd">
<svg xmlns="http://www.w3.org/2000/svg" xmlns:xlink="http://www.w3.org/1999/xlink" version="1.1" width="1745.9543679273331" height="2000" viewBox="0 0 1745.9543679273331 2000" xml:space="preserve">
<desc>Created with Fabric.js 5.3.0</desc>
<defs>
</defs>
<g transform="matrix(1 0 0 1 872.9771839636666 1000)" id="background-logo"  >
<rect style="stroke: none; stroke-width: 0; stroke-dasharray: none; stroke-linecap: butt; stroke-dashoffset: 0; stroke-linejoin: miter; stroke-miterlimit: 4; fill: rgb(255,255,255); fill-opacity: 0; fill-rule: nonzero; opacity: 1;"  paint-order="stroke"  x="-1656.1351194228696" y="-1324.9080955382956" rx="0" ry="0" width="3312.270238845739" height="2649.816191076591" />
</g>
<g transform="matrix(8.056086168487278 0 0 8.056086168487278 935.4807565049945 1100.3251079045021)" id="logo-logo"  >
<g style=""  paint-order="stroke"   >
		<g transform="matrix(0.32622720836617597 0 0 0.32622720836617597 31.923319432526284 12.328537416784002)"  >
<linearGradient id="SVGID_3968_135280" gradientUnits="userSpaceOnUse" gradientTransform="matrix(1 0 0 1 0 0)"  x1="595.8012695" y1="478.4657593" x2="595.8012695" y2="762.2445679">
<stop offset="0%" style="stop-color:rgb(249,179,65);stop-opacity: 1"/>
<stop offset="46.815639999999995%" style="stop-color:rgb(241,68,0);stop-opacity: 1"/>
<stop offset="100%" style="stop-color:rgb(165,2,0);stop-opacity: 1"/>
</linearGradient>
<path style="stroke: none; stroke-width: 1; stroke-dasharray: none; stroke-linecap: butt; stroke-dashoffset: 0; stroke-linejoin: miter; stroke-miterlimit: 4; fill: url(#SVGID_3968_135280); fill-rule: nonzero; opacity: 1;"  paint-order="stroke"  transform=" translate(-595.8012504124666, -537.5663757500001)" d="M 590.8070068 700.8926392 C 532.2440184999999 704.1429443999999 519.3276367 739.4284667999999 518.9443968999999 740.5213013 C 534.6426390999999 657.942688 622.7427366999999 657.0768433000001 622.7427366999999 657.0768433000001 C 464.6679075999999 630.9179688 494.6592710999999 777.0416260000001 495.1984556999999 779.6531983000001 C 495.1984556999999 779.6674195 495.1984556999999 779.6815796000001 495.2126768999999 779.6958008000001 C 459.4589537999999 732.6722412000001 443.71807849999993 690.0913086000002 440.3259275999999 652.6200562000001 C 429.9787290999999 538.5883179000001 534.0040281999999 471.6652527000001 537.0981443999999 469.69229130000014 C 537.1407469 469.6639710000001 537.1691892999999 469.64978030000015 537.1691892999999 469.64978030000015 C 636.3541868999998 406.54476930000015 582.0210569999998 297.2252808000002 581.1268308999998 295.4369507000001 C 581.1268308999998 295.4369507000001 581.1268308999998 295.4369507000001 581.1410520999998 295.4369507000001 C 705.2218015999998 388.8878784000001 615.3761594999997 500.05252080000014 615.3761594999997 500.05252080000014 C 677.3882444999997 479.8833313000001 700.6799314999997 430.7591248000001 700.6799314999997 430.7591248000001 C 712.2478025999998 583.5820923000001 583.3695676999997 568.7214356000002 566.8479612999997 581.1124268000001 C 558.5873411999997 587.3008423000001 560.2338255999997 594.3267212000001 563.9523924999997 599.8054200000001 C 568.0687864999998 605.8519288000001 575.1087645999997 609.3010255000002 582.4325560999997 609.2584840000002 C 706.7832640999998 608.3784791000002 751.8906859999997 537.5521241000001 751.8906859999997 537.5521241000001 C 756.8585205 706.300415 590.8070068 700.8926392 590.8070068 700.8926392 z M 729.9329834 473.553009 C 729.9329834 473.553009 732.5872192 495.49633789999996 723.6877441 515.0126342 C 715.6116943000001 532.6979369 714.859375 534.3585815 714.7883300000001 534.5146483999999 C 715.4838256 534.1882324 733.5524902000001 525.5301512999999 740.2802123000001 510.76870719999994 C 744.7938843 500.8757935 744.211731 488.2434082 729.9329834 473.553009 z M 694.8887939 361.9766846 C 694.8747558 361.9199524 694.8463745 361.8774109 694.8179321 361.8205872 C 681.8591308 338.21652229999995 658.1558227 331.81518559999995 658.1558227 331.81518559999995 C 658.1558227 331.81518559999995 679.5031127000001 356.93795779999994 678.2539062000001 372.02581789999994 C 676.9907836000001 387.0994567999999 678.3107299000001 408.4608764999999 678.3107299000001 408.4608764999999 C 678.3107299000001 408.4608764999999 678.3107299000001 408.4467773999999 678.3249511 408.4325561999999 C 678.8927002 407.3963623 699.1186523 370.5639038 694.8887939 361.9766846 z" stroke-linecap="round" />
</g>
		<g transform="matrix(0.32622720836617597 0 0 0.32622720836617597 10.991541308083981 -6.596189889990399)"  >
<linearGradient id="SVGID_3969_135281" gradientUnits="userSpaceOnUse" gradientTransform="matrix(1 0 0 1 0 0)"  x1="586.2008667" y1="400.2125854" x2="465.7415771" y2="542.0692749">
<stop offset="0%" style="stop-color:rgb(255,242,190);stop-opacity: 1"/>
<stop offset="100%" style="stop-color:rgb(249,179,65);stop-opacity: 0"/>
</linearGradient>
<path style="stroke: none; stroke-width: 1; stroke-dasharray: none; stroke-linecap: butt; stroke-dashoffset: 0; stroke-linejoin: miter; stroke-miterlimit: 4; fill: url(#SVGID_3969_135281); fill-rule: nonzero; opacity: 1;"  paint-order="stroke"  transform=" translate(-531.6380611148182, -479.55549615)" d="M 591.4604492 474.8030396 C 575.1906738 498.1956788 557.9082641 510.3771668 511.88436889999997 536.9873047 C 486.04986569999994 551.9243164 446.28268429999997 599.4030151 447.00607299999996 652.1863403 C 436.65884399999993 541.0542602 540.6841430999999 475.8329467 543.7782593 473.9101867 C 543.8208618 473.8825683 543.8493041999999 473.8687133 543.8493041999999 473.8687133 C 643.0343627999999 412.3684081 591.5399169999998 308.66748040000004 590.6456908999999 306.92465200000004 C 590.6456908999999 306.92465200000004 590.6456908999999 306.92465200000004 590.6599120999998 306.92465200000004 C 592.3204955999998 309.19314570000006 677.5783690999998 418.87734980000005 532.1502684999998 501.72152700000004 C 533.5696411 501.4172668 563.9491577 495.544281 591.4604492 474.8030396 z" stroke-linecap="round" />
</g>
		<g transform="matrix(0.32622720836617597 0 0 0.32622720836617597 26.960964418060826 30.316790113696413)"  >
<linearGradient id="SVGID_3970_135282" gradientUnits="userSpaceOnUse" gradientTransform="matrix(1 0 0 1 0 0)"  x1="676.7228394" y1="484.2478638" x2="525.1538086" y2="631.223877">
<stop offset="0%" style="stop-color:rgb(255,242,190);stop-opacity: 1"/>
<stop offset="100%" style="stop-color:rgb(249,179,65);stop-opacity: 0"/>
</linearGradient>
<path style="stroke: none; stroke-width: 1; stroke-dasharray: none; stroke-linecap: butt; stroke-dashoffset: 0; stroke-linejoin: miter; stroke-miterlimit: 4; fill: url(#SVGID_3970_135282); fill-rule: nonzero; opacity: 1;"  paint-order="stroke"  transform=" translate(-580.5899041874902, -592.70663455)" d="M 698.3913574 441.4562378 C 698.3913574 441.4562378 700.500061 497.9698486 615.7166136999999 522.9959717 C 615.7166136999999 522.9959717 643.3622435999999 522.6942139 665.5345457999999 515.5827027 C 665.5345457999999 515.5827027 639.3394163999999 541.9074708 590.5576781 554.7180787 C 548.8104857 565.6813354999999 516.1747435 600.6605225 577.4312742999999 625.8194581 C 577.4312742999999 625.8194581 468.0446165999999 654.2599488000001 485.5464781999999 743.9570313 C 485.5464781999999 743.9570313 434.25210559999994 652.0722046000001 485.6638487999999 595.1911622 C 485.6638487999999 595.1911622 475.6592711999999 619.9620973 484.4526060999999 643.3212892 C 484.4526060999999 643.3212892 484.4526060999999 587.9769899 540.2398069999999 550.7855226 C 596.0270079 513.5940553 668.076416 511.5648193 698.3913574 441.4562378 z" stroke-linecap="round" />
</g>
		<g transform="matrix(0.32622720836617597 0 0 0.32622720836617597 55.95177944667245 32.075519050243116)"  >
<linearGradient id="SVGID_3971_135283" gradientUnits="userSpaceOnUse" gradientTransform="matrix(1 0 0 1 0 0)"  x1="769.6154175" y1="544.3001099" x2="635.9454346" y2="625.9428711">
<stop offset="0%" style="stop-color:rgb(255,242,190);stop-opacity: 1"/>
<stop offset="100%" style="stop-color:rgb(249,179,65);stop-opacity: 0"/>
</linearGradient>
<path style="stroke: none; stroke-width: 1; stroke-dasharray: none; stroke-linecap: butt; stroke-dashoffset: 0; stroke-linejoin: miter; stroke-miterlimit: 4; fill: url(#SVGID_3971_135283); fill-rule: nonzero; opacity: 1;"  paint-order="stroke"  transform=" translate(-669.4568481, -598.0977512056426)" d="M 595.8012695 619.6132812 C 595.8012695 619.6132812 681.5792236 620.5590209 743.1124267 560.3045654 C 743.1124267 560.3045654 727.673645 602.9359741 687.9257812000001 624.930664 C 672.8840942 633.2540283 655.6556396000001 636.7812499 638.4985351 635.701416 C 638.4985352 635.701416 607.7655029 630.3695679 595.8012695 619.6132812 z" stroke-linecap="round" />
</g>
		<g transform="matrix(0.32622720836617597 0 0 0.32622720836617597 60.659747801501226 -40.24683801256813)"  >
<path style="stroke: none; stroke-width: 1; stroke-dasharray: none; stroke-linecap: butt; stroke-dashoffset: 0; stroke-linejoin: miter; stroke-miterlimit: 4; fill: rgb(244,5,5); fill-rule: nonzero; opacity: 1;"  paint-order="stroke"  transform=" translate(-683.8884106248042, -376.40454105000003)" d="M 678.3249512 408.4325562 C 678.31073 408.44677740000003 678.31073 408.46087650000004 678.31073 408.46087650000004 C 678.31073 408.46087650000004 687.5551148000001 371.97329720000005 687.1860962000001 367.48812870000006 C 686.8312378 363.1022644000001 672.6900635000001 344.94430550000004 672.3068237000001 344.3482056000001 C 672.9028320000001 344.7882080000001 685.8049926000001 354.42575080000006 694.8887939000001 361.9766846000001 C 699.1186523 370.5639038 678.8927002 407.3963623 678.3249512 408.4325562 z" stroke-linecap="round" />
</g>
		<g transform="matrix(0.32622720836617597 0 0 0.32622720836617597 74.84061183272996 3.4498071577613416)"  >
<linearGradient id="SVGID_3972_135284" gradientUnits="userSpaceOnUse" gradientTransform="matrix(1 0 0 1 0 0)"  x1="739.9710693" y1="494.3882141" x2="698.8473511" y2="552.7476196">
<stop offset="0%" style="stop-color:rgb(249,179,65);stop-opacity: 1"/>
<stop offset="46.815639999999995%" style="stop-color:rgb(241,68,0);stop-opacity: 1"/>
<stop offset="100%" style="stop-color:rgb(165,2,0);stop-opacity: 1"/>
</linearGradient>
<path style="stroke: none; stroke-width: 1; stroke-dasharray: none; stroke-linecap: butt; stroke-dashoffset: 0; stroke-linejoin: miter; stroke-miterlimit: 4; fill: url(#SVGID_3972_135284); fill-rule: nonzero; opacity: 1;"  paint-order="stroke"  transform=" translate(-727.3576972678462, -510.34997555000007)" d="M 730.5386353 523.6906738 C 723.2196656 530.4805908 715.2457886 534.2999267 714.7883301 534.5146484 C 723.7872315000001 526.0410766000001 730.9835205 510.01651000000004 733.7369995 504.0409546000001 C 736.4904785 498.0795899000001 733.7369995 486.1853027000001 733.7369995 486.1853027000001 C 735.9780273 488.42633050000006 737.5429077 491.2362060000001 738.5885010000001 494.3803405000001 C 742.0535278 504.7996216 738.5884399 516.2227783 730.5386353 523.6906738 z" stroke-linecap="round" />
</g>
		<g transform="matrix(0.32622720836617597 0 0 0.32622720836617597 -52.10717777005823 -7.8883853229178555)"  >
<linearGradient id="SVGID_3973_135285" gradientUnits="userSpaceOnUse" gradientTransform="matrix(1 0 0 1 0 0)"  x1="854.8876953" y1="991.015564" x2="1834.1617432" y2="2100.8596191">
<stop offset="0%" style="stop-color:rgb(26,230,218);stop-opacity: 1"/>
<stop offset="46.368700000000004%" style="stop-color:rgb(64,170,227);stop-opacity: 1"/>
<stop offset="100%" style="stop-color:rgb(20,55,153);stop-opacity: 1"/>
</linearGradient>
<path style="stroke: none; stroke-width: 1; stroke-dasharray: none; stroke-linecap: butt; stroke-dashoffset: 0; stroke-linejoin: miter; stroke-miterlimit: 4; fill: url(#SVGID_3973_135285); fill-rule: nonzero; opacity: 1;"  paint-order="stroke"  transform=" translate(-338.21851345, -475.59446715)" d="M 398.1456604 317.3650818 L 377.6368713 337.8738403 L 357.1281128 317.3650818 L 377.6368713 296.8563233 L 398.1456604 317.3650818 z M 274.3396301 471.2599182 L 253.83085630000002 491.7686767 L 274.3396301 512.2774658000001 L 294.8483886 491.76867670000007 L 274.3396301 471.2599182 z M 389.7230225 660.2460327 L 369.214264 680.7547607 L 389.7230225 701.2635498 L 410.231781 680.7547606999999 L 389.7230225 660.2460327 z M 411.6040344 249.9253845 L 400.6018982 260.9275207 L 411.6040344 271.9296874 L 422.6061706 260.9275207 L 411.6040344 249.9253845 z" stroke-linecap="round" />
</g>
		<g transform="matrix(0.32622720836617597 0 0 0.32622720836617597 -53.30415473941895 -10.913018175326897)"  >
<linearGradient id="SVGID_3974_135287" gradientUnits="userSpaceOnUse" gradientTransform="matrix(1 0 0 1 257.49475100000006 251.89106759999999)"  x1="0" y1="0" x2="0" y2="429">
<stop offset="0%" style="stop-color:rgb(23,234,217);stop-opacity: 1"/>
<stop offset="100%" style="stop-color:rgb(96,120,234);stop-opacity: 1"/>
</linearGradient>
<path style="stroke: none; stroke-width: 1; stroke-dasharray: none; stroke-linecap: butt; stroke-dashoffset: 0; stroke-linejoin: miter; stroke-miterlimit: 4; fill: url(#SVGID_3974_135287); fill-rule: nonzero; opacity: 1;"  paint-order="stroke"  transform=" translate(-334.5493622, -466.32291415)" d="M 377.6367493 300.5204773 L 377.6367493 317.3650818 L 360.7920227 317.3650818 L 377.6367493 300.5204773 z M 257.494751 491.7686768 L 274.3394776 491.7686768 L 274.3394776 474.92410279999996 L 257.494751 491.7686768 z M 372.8781738 680.7547607 L 389.7229004 680.7547607 L 389.7229004 663.9101562000001 L 372.8781738 680.7547607 z M 402.5674133 260.9275208 L 411.6039734 260.9275208 L 411.6039734 251.8910676 L 402.5674133 260.9275208 z" stroke-linecap="round" />
</g>
		<g transform="matrix(0.32622720836617597 0 0 0.32622720836617597 -28.183371535459344 -21.170381667778827)"  >
<linearGradient id="SVGID_3975_135288" gradientUnits="userSpaceOnUse" gradientTransform="matrix(1 0 0 1 0 0)"  x1="339.6272278" y1="390.0011902" x2="466.6358337" y2="551.4835815">
<stop offset="0%" style="stop-color:rgb(26,230,218);stop-opacity: 1"/>
<stop offset="46.368700000000004%" style="stop-color:rgb(64,170,227);stop-opacity: 1"/>
<stop offset="100%" style="stop-color:rgb(20,55,153);stop-opacity: 1"/>
</linearGradient>
<path style="stroke: none; stroke-width: 1; stroke-dasharray: none; stroke-linecap: butt; stroke-dashoffset: 0; stroke-linejoin: miter; stroke-miterlimit: 4; fill: url(#SVGID_3975_135288); fill-rule: nonzero; opacity: 1;"  paint-order="stroke"  transform=" translate(-411.5533108582696, -434.8805229900987)" d="M 507.1409912 467.4046631 C 497.006897 474.5724182 487.8234558 482.9751282 479.3072815 492.0022583 C 474.9214783 496.6577454 470.4362488 501.6112976 467.0723572 505.7984619 C 464.4039612 509.119812 461.8349915 512.4837036 459.3937378 515.8759765 C 459.3937378 515.8759765 432.7380066 552.9071655 430.05538939999997 581.3938598 C 430.05538939999997 581.3938598 430.05538939999997 550.7355956 444.4335632 524.7611694 L 425.3998413 536.0735473 C 422.0643616 538.9547729 419.111969 542.3045654 416.5288086 545.8245849 C 413.3068237 550.2671508 410.6526184 555.135559 408.5519714 560.2311401 C 407.6861877 562.8853759 407.2036438 565.7240599999999 406.9623108 568.5202026 C 406.8345947 575.7589720999999 407.714447 583.0971069 405.14547730000004 589.9951781999999 C 403.01641850000004 596.2546385999999 400.53253170000005 602.3436889 397.19705200000004 608.1488036999999 C 394.95434570000003 612.2365722999999 392.5557251 616.3670043999999 388.69509890000006 620.539917 C 381.85363770000004 608.4611206 380.83175660000006 590.0661011 386.39572150000004 577.5047608 C 389.51843270000006 570.7485962 395.49389650000006 565.7523804 399.8654786 559.8479004 C 402.8745118 555.5188598999999 405.37261970000003 550.9058838 408.04104620000004 546.392334 L 375.9776307 565.4401856 C 372.64199840000003 568.3073121 369.6897584 571.6712037 367.106598 575.1770019999999 C 363.8704225 579.6338500999999 361.2302247 584.5022582999999 359.12960830000003 589.5836181999999 C 358.26397720000006 592.2520142 357.7812807 595.0765380999999 357.54010020000004 597.8726197 C 357.4122315 605.1256715 358.292389 612.449524 355.72326670000007 619.3618164999999 C 353.5942079000001 625.6212768999999 351.1103211000001 631.7103271999999 347.7746888000001 637.515503 C 345.5321656000001 641.5891723999999 343.1333314000001 645.7336425999999 339.2727052000001 649.9066163 C 332.4314576000001 637.8135987 331.4095460000001 619.4328004 336.97351090000006 606.8714601 C 340.0960390000001 600.1152345 346.0715334000001 595.1049196 350.44326800000005 589.2145387 C 353.43792740000004 584.8854982 355.9502565 580.2725831 358.61883560000007 575.7448121000001 L 283.36407490000005 620.4547730000002 C 297.5577395 623.2650757000001 310.55899070000004 631.1709595000002 317.1308291 643.9168091000001 C 306.98214750000005 641.9297486000002 297.04660060000003 639.2187500000001 286.8272402 637.8703003000002 C 276.2246401 636.5078125000001 265.5367739 637.1038818000002 255.0336153 638.8355713000002 C 254.1534426 638.9632568000002 252.42185990000002 639.2755737000002 251.541855 639.3890381000002 C 251.4851991 639.3890381000002 251.41416949999999 639.4032593000002 251.4425813 639.3748779000002 L 243.9056703 626.6999511000002 C 246.9573366 622.6121825000002 250.2786104 618.4534301000002 253.0178834 614.0818481000002 C 259.83090219999997 603.8339843000002 264.0463868 592.2094116000002 267.367798 580.3719482000002 C 267.807892 578.9525756000003 268.1909792 577.5189819000002 268.60266129999997 576.0570068000003 C 269.51107799999994 572.9912109000003 270.24917619999997 569.9395752000003 271.34210219999994 566.8311157000003 C 275.1885376999999 572.3098755000003 277.31756609999996 578.8106079000003 278.09829729999996 585.4248657000003 C 278.87884539999993 592.8197021000003 278.02725239999995 600.4558716000003 275.77032489999993 607.7230224000003 L 351.02508559999995 563.0130615000003 C 344.5668947 563.2117920000003 338.09469619999993 563.0414428000003 331.73596209999994 564.3756714000003 C 318.7345277999999 567.3847046000003 312.26214619999996 569.0737305000004 299.48788469999994 563.3678589000003 C 290.24795549999993 559.2375488000004 282.34219379999996 553.3471680000004 276.6647340999999 544.5329590000003 C 282.1716920999999 543.1277466000004 286.9551088999999 543.0000611000004 291.6105043999999 542.9858399000003 C 296.1809999999999 542.7728882000004 300.5523988999999 543.2981568000004 304.9951784999999 543.7381592000003 C 309.2674867999999 544.2206421000003 313.4545290999999 544.8735962000003 317.5139162999999 546.2929688000003 C 322.25454739999986 548.1523438000003 326.5126345999999 551.0336304000002 331.0971376999999 553.3613892000003 C 333.6662904999999 554.4826661000003 336.3773195999999 555.4194947000003 339.1309816999999 555.9304200000003 C 342.40960719999987 556.2710572000002 345.7450868999999 556.4697877000002 349.02389549999987 556.3136597000002 C 354.4742128999999 556.2001343000003 359.99557519999985 555.3201294000003 365.23294089999985 553.7871704000003 C 366.29745509999987 553.4465332000003 367.37619039999987 553.0632934000002 368.44073509999987 552.6658935000003 L 400.4474794999999 533.6463623000003 C 393.9892885999999 533.8450928000003 387.5169069999999 533.6748047000003 381.1581728999999 535.0090332000003 C 368.1569216999999 538.0180664000003 361.6845400999999 539.7070923000003 348.9102480999999 534.0012207000003 C 339.6701662999999 529.8709106000003 331.7643740999999 523.9805298000003 326.0869143999999 515.1663208000003 C 331.5940554999999 513.7752686000003 336.3773196999999 513.6333618000003 341.03271519999987 513.6191406000004 C 345.60318029999985 513.4062500000003 349.9747622999999 513.9314575000004 354.41738929999985 514.3856201000003 C 358.6896975999999 514.8540039000003 362.89114419999987 515.5211792000003 366.93609659999987 516.9404907000003 C 371.67691079999986 518.7856445000003 375.9349979999999 521.6811523000002 380.51953169999985 523.9946899000003 C 383.08865399999985 525.1159668000003 385.79953049999983 526.0527954000003 388.55300949999986 526.5637817000003 C 391.83181809999985 526.9044189000002 395.1674808999999 527.1031494000002 398.44610639999985 526.9470214000003 C 403.89642379999987 526.8334350000002 409.41778609999983 525.9534301000002 414.65533489999984 524.4205321000003 C 415.71984909999986 524.0798949000003 416.79858439999987 523.6965941000003 417.86309859999983 523.2992552000003 L 466.6322941999998 494.3300474000003 C 464.7021488999998 494.2164610000003 462.7574467999998 494.1596372000003 460.7988896999998 494.1596372000003 C 453.4038701999998 493.98931860000033 446.22198539999977 497.5945737000003 438.8129277999998 497.7932126000003 C 427.7560429999998 497.63711520000027 416.7275395999998 496.4306943000003 405.8411259999998 494.31582610000027 C 402.1648564999998 493.5635373000003 398.50277759999983 492.71194430000025 394.8410343999998 491.5054318000003 C 398.5027775999998 490.3132321000003 402.1648563999998 489.4615475000003 405.8411259999998 488.70931970000026 C 416.72753959999983 486.5944821000003 427.7560429999998 485.38796960000025 438.8129277999998 485.2318722000003 C 446.1935735999998 485.4306027000003 453.34722959999976 489.0074154000003 460.7278447999998 488.86544760000027 L 417.8204655999998 463.37362630000024 C 413.7042851999998 461.8265682000002 409.33270309999983 460.83297690000023 405.0177922999998 460.25109820000023 C 396.82800349999985 459.34268150000025 388.1272893999998 459.07299760000024 380.5195317999998 462.70657310000024 C 374.0897526999998 466.0562435000002 368.0716862999998 470.32855190000026 360.7762761999998 471.37884480000025 C 354.2612920999998 472.50021320000025 347.73223929999983 473.23821980000025 341.0327153999998 473.08212240000023 C 336.3773198999998 473.0679012000002 331.5940556999998 472.92599450000023 326.0869145999998 471.53497270000025 C 333.42511039999977 459.74005080000023 349.09475759999975 450.04583700000023 362.77746639999975 448.95291090000023 C 370.2149358999998 448.44195510000026 377.45382749999976 451.2948909000002 384.72079529999974 452.33099320000025 C 389.97238219999974 452.8845821000003 395.20993099999976 452.8845821000003 400.46167049999974 453.05490070000025 L 368.39810239999974 434.00704910000024 C 364.28207459999976 432.45989940000027 359.91033989999977 431.4805293000002 355.59539849999976 430.88442950000024 C 347.40564019999977 429.97601280000026 338.70510919999975 429.70632890000024 331.09713799999975 433.33990440000025 C 324.66757259999974 436.68957480000023 318.6492924999998 440.9618832000003 311.3539128999997 442.01220660000024 C 304.83889829999976 443.13354450000026 298.3100285999997 443.87155110000026 291.61050469999975 443.71545370000024 C 286.95510919999975 443.70123250000023 282.17169239999976 443.5593563000002 276.66473439999976 442.1683956000002 C 284.00271659999976 430.3876034000002 299.67257739999974 420.6933895000002 313.3551030999998 419.5862423000002 C 320.79254209999976 419.0895077000002 328.03143369999975 421.9424435000002 335.2985844999998 422.9643551000002 C 340.5503544999998 423.5321346000002 345.7877201999998 423.5179134000002 351.03930719999977 423.7024532000002 L 275.78454649999975 378.9924617000002 C 280.11367859999973 392.8028560000002 279.38980159999977 408.01840160000023 271.34210269999977 419.8701472000002 C 268.23361269999975 409.99133250000017 265.84899969999975 399.9706111000002 262.15869209999977 390.3615718000002 C 258.2696234999998 380.3976131000002 252.63479679999978 371.2853084000002 246.10575939999978 362.88259840000023 C 245.56622389999978 362.18713330000026 244.4734503999998 360.8103938000002 243.94828869999978 360.1007075000002 C 243.91987679999977 360.04388380000023 243.86305309999977 359.98715160000023 243.9056708999998 360.0013423000002 L 251.4425818999998 347.3264155000002 C 256.4812323999998 348.0502314000002 261.7187811999998 348.9728388000002 266.8708808999998 349.28515570000025 C 279.1344001999998 350.37802070000026 291.3549506999998 348.50442450000025 303.3486640999998 345.7650751000002 C 304.79644849999977 345.4811701000002 306.2440497999998 345.12634220000024 307.7344672999998 344.78570500000023 C 310.8569953999998 344.11865180000024 313.8804328999998 343.32382150000024 317.1308295999998 342.7844538000002 C 314.1642157999998 348.7883295000002 309.4660346999998 353.7561030000002 304.0441596999998 357.61682070000023 C 297.9125678999998 361.83230530000026 290.7873237999998 364.72775210000026 283.3498847999998 366.23239080000025 L 358.6046149999998 410.94235170000024 C 355.3400275999998 405.36419620000026 352.3876349999998 399.60156190000026 348.1863715999998 394.6480097000002 C 339.3153388999998 384.6557001000002 334.7450263999998 379.8298334000002 333.6378791999998 365.8491205000002 C 332.8429572999998 355.7574457000002 334.2340705999998 345.9922174000002 339.27270589999983 336.7946771000002 C 343.13333209999985 340.96762020000017 345.53216629999986 345.0980218000002 347.77468949999985 349.1857904000002 C 350.14508129999984 353.1032404000002 351.77740559999984 357.1768182000002 353.50897289999983 361.3071283000002 C 355.12707589999985 365.2813409000002 356.56063919999986 369.2839655000002 357.2561347999998 373.5136408000002 C 357.8949286999998 378.5807795000002 357.3980109999998 383.6905512000002 357.5401008999998 388.8286432000002 C 357.7812812999998 391.62475530000023 358.2639778999998 394.4492792000002 359.1296089999998 397.1035455000002 C 360.4072273999998 400.1551507000002 361.8265999999998 403.16418390000024 363.5297859999998 405.98870790000024 C 366.24063189999976 410.7152094000002 369.64730919999977 415.14364560000024 373.49374469999975 419.00433290000024 C 374.30270469999977 419.7849725000002 375.15429769999974 420.5372003000002 376.00604329999976 421.28951970000026 L 408.02682579999976 440.30892890000024 C 404.76239099999975 434.7308344000002 401.80999839999976 428.9682307000002 397.60873499999974 424.0146479000002 C 388.73770229999974 414.0081477000002 384.16738979999974 409.1965021000002 383.06024259999975 395.2157893000002 C 382.26532069999973 385.1241145000002 383.6562813999997 375.3588862000002 388.69509979999975 366.1613459000002 C 392.55572599999977 370.3342890000002 394.9543465999998 374.4646601000002 397.19705289999973 378.55245920000016 C 399.5672921999997 382.45571850000016 401.1997689999997 386.54348700000014 402.9313668999997 390.65957590000016 C 404.5492867999997 394.64800970000016 405.9828500999997 398.6506342000002 406.67831509999974 402.8803095000002 C 407.31713959999973 407.93322700000016 406.82040489999974 413.0572199000002 406.96231169999976 418.1810907000002 C 407.20364469999976 420.9772028000002 407.6861886999998 423.8159174000002 408.55197229999976 426.4701227000002 C 409.8294380999998 429.52178900000024 411.24881069999975 432.5308527000002 412.9519661999998 435.3553766000002 C 415.6630257999998 440.0818781000002 419.0693672999998 444.49609320000025 422.91595549999977 448.3710016000002 C 423.7249154999998 449.1374201000002 424.5766610999998 449.9038690000002 425.44244479999975 450.65615780000024 L 471.27362159999973 477.87957700000027 C 469.8684701999997 474.5724176000003 468.20791729999974 471.37884460000026 466.3910837999997 468.2421258000003 C 463.72268779999973 463.40203790000027 459.2800608999997 459.5697320000003 455.5613413999997 455.45361260000027 C 453.0490427999997 452.6858514000003 451.26080429999973 449.50646900000027 449.6283274999997 446.18511890000025 C 447.1160288999997 441.2599785000003 444.8026133999997 436.27798390000027 442.68777569999975 431.1541130000002 C 439.83483989999974 424.2133781000002 437.29412949999977 417.2301323000002 435.6760263999997 409.80679240000023 C 443.96505839999975 417.4429924000002 450.77807719999976 426.29980390000026 457.16522319999973 435.48315350000024 C 459.2090158999997 438.53472820000025 461.33807479999973 441.52966230000027 463.1264963999997 444.73742600000026 C 464.9149179999997 448.0019524000003 465.92260849999974 451.64974900000027 466.91626079999975 455.24069140000023 C 468.47750959999973 461.67043990000025 471.61425879999973 467.23434370000024 475.37579449999976 472.50021290000024 L 475.37579449999976 422.18371510000026 C 474.6092844999998 417.85467460000024 473.2183237999998 413.5965569000003 471.5149851999997 409.59396290000024 C 469.3434763999997 404.5410149000002 466.50476179999976 399.7718804000002 463.21173199999976 395.37188650000024 C 461.36648659999975 393.27127000000024 459.18060409999975 391.41189500000024 456.89563089999973 389.76538020000027 C 450.7354746999997 385.9472955000003 443.97927959999976 382.9666436000003 439.3521433999997 377.23245170000024 C 435.0656138999997 372.2078545000002 431.0914927999997 366.9561761000002 427.8128672999997 361.1368096000002 C 425.4424448999997 357.1199944000002 423.1146860999997 352.9328606000002 421.51080429999973 347.48254320000024 C 435.33538929999975 347.75222700000023 451.77157699999975 356.32516400000026 459.66333119999973 367.4955437000002 C 463.89300649999973 373.6271965000002 465.1420603999997 381.3201592000002 467.96658439999976 388.0905449000002 C 470.15243649999974 392.88799970000025 472.84927479999976 397.3873589000002 475.3757945999998 402.00030440000023 L 475.3757945999998 364.69943160000025 C 474.6092845999998 360.37039110000023 473.2183238999998 356.11230390000026 471.51498529999975 352.10967940000023 C 469.3434764999997 347.0567314000002 466.5047618999998 342.28762740000025 463.2117320999997 337.88760300000024 C 461.3664866999997 335.78698650000024 459.1806041999997 333.91342090000023 456.8956309999997 332.28109670000026 C 450.7354747999997 328.4630120000003 443.9792796999997 325.48239060000026 439.35214349999967 319.74816820000024 C 435.06561399999964 314.7235710000002 431.09149289999965 309.4718926000002 427.8128673999997 303.63833540000024 C 425.4424449999997 299.6357109000002 423.11468619999965 295.44857710000025 421.5108043999997 289.99825970000023 C 435.3353893999997 290.26794350000023 451.7715770999997 298.84088050000025 459.6633312999997 310.0112602000002 C 463.8930065999997 316.14294350000023 465.1420604999997 323.8358757000002 467.9665844999997 330.6062614000002 C 470.1524365999997 335.40371620000025 472.8492748999997 339.9030754000002 475.37579469999974 344.5018302000002 L 475.37579469999974 256.9554130000002 C 470.2659313999998 262.6045524000002 464.13418699999977 267.2600089000002 457.39221319999973 270.3399955000002 C 451.30325449999975 273.0510551000002 444.63211189999976 274.5413505000002 437.96118289999976 274.0303947000002 C 439.05410889999973 272.68200600000023 440.18966799999976 271.5607292000002 441.2684033999998 270.36843790000023 C 447.25808849999976 264.0806571000002 453.24777349999977 257.8070671000002 458.6272290999998 251.06509320000023 C 465.2129224999998 242.63406290000023 470.1664746999998 233.13851850000023 474.0556958999998 223.23136820000025 C 474.3821423999998 222.40812600000024 475.00674569999984 220.77581710000024 475.34738289999984 219.95255960000026 C 475.3757947999998 219.89581220000025 475.4040234999998 219.82485880000024 475.41824469999983 219.86740030000027 L 490.1512463999998 219.86740030000027 C 492.10998659999984 224.57969580000028 493.9976818999998 229.54748450000028 496.35388309999985 234.14620890000026 C 501.6764843999998 245.24565040000027 509.52560549999987 254.79803390000026 518.0133679999999 263.69738690000025 C 518.9928601999999 264.80453410000024 520.0431531999999 265.86904830000026 521.0934460999999 266.9761345000002 C 523.265138 269.3181145000002 525.4934705 271.5039055000002 527.6224987999999 274.03039480000024 C 520.9371960999999 274.5413506000002 514.2662366 273.05105520000023 508.1771252999999 270.33999560000024 C 501.4209301999999 267.23168870000023 495.2893383999999 262.59033130000023 490.2080700999999 256.96960380000024 L 490.2080700999999 344.55865410000024 C 491.59903079999987 341.9754021000002 493.0041821999999 339.40634090000026 494.43774539999987 336.86572200000023 C 503.12426879999987 321.6784967000002 499.6609203999999 311.40231260000024 516.2107556999998 300.0047601000002 C 524.4855969999999 294.1569818000002 533.5979626999998 290.38153010000025 544.0728772999998 289.9982599000002 C 542.4549573999999 295.44857730000024 540.1270154999999 299.6357111000002 537.7709973999998 303.63833560000023 C 535.6135266999999 307.66937200000024 532.9309094999999 311.1609491000002 530.2767346999998 314.75198310000025 C 527.6792004999998 318.18682810000024 524.9683240999998 321.45135440000024 521.6895154999997 324.21911570000026 C 517.6585706999997 327.34173530000027 513.0172132999998 329.52752630000026 508.6740430999997 332.28109690000025 C 506.4028943999997 333.9134211000003 504.2171949999997 335.78698680000025 502.3719495999997 337.8876032000002 C 500.3990186999997 340.5276178000002 498.5255445999997 343.2953791000002 496.9784864999997 346.19085640000026 C 494.2956861999997 350.94580020000024 492.2376722999997 356.12643380000026 490.87515399999967 361.40649360000026 C 490.63397359999965 362.51354930000025 490.40664809999964 363.62069650000024 490.2080702999997 364.74197330000027 L 490.2080702999997 402.04290710000026 C 491.5990309999997 399.45965510000025 493.0041823999997 396.89062440000026 494.4377455999997 394.34997500000026 C 503.1242689999997 379.16278020000027 499.6609205999997 368.88659610000025 516.2107558999996 357.4890436000003 C 524.4855971999997 351.64126530000027 533.5979628999996 347.8657831000003 544.0728774999997 347.4825434000003 C 542.4549575999997 352.9328608000003 540.1270156999997 357.11999460000027 537.7709975999996 361.13680980000026 C 535.6135268999997 365.16784620000027 532.9309096999997 368.6452327000003 530.2767348999996 372.2504573000003 C 527.6792006999996 375.6711116000003 524.9683242999996 378.9498286000003 521.6895156999996 381.70339920000026 C 517.6585708999995 384.8402400000003 513.0172134999996 387.0260310000003 508.67404329999954 389.76538040000025 C 506.4028945999995 391.41189530000025 504.21719519999954 393.27127030000025 502.3719497999995 395.37188670000023 C 500.39901889999953 398.0119013000002 498.5255447999995 400.7796626000002 496.9784866999995 403.6893611000002 C 494.2956863999995 408.4300532000002 492.2376724999995 413.62490800000023 490.8751541999995 418.90496780000024 C 490.63397379999947 419.99783280000025 490.40664829999946 421.10498000000024 490.2080704999995 422.22625690000024 L 490.2080704999995 472.51434280000024 C 491.76934979999953 470.2860103000002 493.2029129999995 467.9724422000002 494.5938736999995 465.5879207000002 C 497.4468094999995 460.8613887000002 498.5537735999995 455.0987850000002 500.2571121999995 449.8186946000002 C 501.4067093999995 446.2702937000002 503.28036659999947 443.11935380000017 505.35260169999947 440.0534663000002 C 508.36181799999946 435.4264216000002 511.5269790999995 430.9269709000002 514.9049087999995 426.5411677000002 C 519.5036025999995 420.6082453000002 524.2870498999995 414.9165644000002 529.9076553999995 409.8067927000002 C 527.4379898999995 420.8068843000002 523.1514907999995 431.1257014000002 518.3824478999995 441.2457575000002 C 517.5734878999996 442.8921808000002 516.7927261999995 444.5386957000002 515.9552017999995 446.1709284000002 C 573.3685928999995 406.3719782000002 579.5712295999995 378.7510981000002 578.1660782999995 365.4374384000002 C 586.1571045 408.1036377 547.1954346 439.0457764 507.1409912 467.4046631 z" stroke-linecap="round" />
</g>
		<g transform="matrix(0.32622720836617597 0 0 0.32622720836617597 -49.08256979247386 -6.691415791537452)"  >
<path style="stroke: none; stroke-width: 1; stroke-dasharray: none; stroke-linecap: butt; stroke-dashoffset: 0; stroke-linejoin: miter; stroke-miterlimit: 4; fill: rgb(64,169,227); fill-rule: nonzero; opacity: 1;"  paint-order="stroke"  transform=" translate(-347.48999019999997, -479.26359560000003)" d="M 394.4815063 317.3652344 L 377.6367492 334.209961 L 377.6367492 317.36508180000004 L 394.4815063 317.3652344 z M 274.3394775 491.7686768 L 274.3394775 508.61355599999996 L 291.18423459999997 491.76882939999996 L 274.3394775 491.7686768 z M 389.7229004 680.7547607 L 389.7229004 697.5996704 L 406.567627 680.7549438000001 L 389.7229004 680.7547607 z M 411.6039734 260.9275208 L 411.6039734 269.9641419 L 420.6405029 260.92761240000004 L 411.6039734 260.9275208 z" stroke-linecap="round" />
</g>
</g>
</g>
<g transform="matrix(3.9587716904173234 -3.2086302510736133 3.2086302510736133 3.9587716904173234 157.72730195873044 382.28319762463127)" id="text-logo-0"  >
<g style=""  paint-order="stroke"   >
		<g transform="matrix(1 0 0 1 0 0)" id="f5d0258a-674f-444c-b812-e7badd6c0299-path-0"  >
<linearGradient id="SVGID_135289" gradientUnits="userSpaceOnUse" gradientTransform="matrix(1 0 0 1 -0.1999999999999993 -47.83)"  x1="0.1979212510789239" y1="-10.16919388043577" x2="0.1979212510789239" y2="64.38114402596386">
<stop offset="0%" style="stop-color:rgb(91,36,122);stop-opacity: 1"/>
<stop offset="56.99999999999999%" style="stop-color:rgb(77,216,229);stop-opacity: 1"/>
</linearGradient>
<path style="stroke: rgb(255,255,255); stroke-width: 0; stroke-dasharray: none; stroke-linecap: butt; stroke-dashoffset: 0; stroke-linejoin: miter; stroke-miterlimit: 4; fill: url(#SVGID_135289); fill-rule: nonzero; opacity: 1;"  paint-order="stroke"  transform=" translate(-20.020000000000003, 23.619999999999997)" d="M 26.85 0.59 L 40.24 0.59 L 40.24 -0.2 C 37.47 -0.79 35.3 -2.24 35.3 -4.75 L 35.3 -41.76 C 35.3 -44.66 37.34 -46.05 39.78 -47.24 L 39.78 -47.76 L 26.85 -47.83 L 26.85 -28.5 L 13.19 -28.5 L 13.19 -47.83 L 0.26 -47.76 L 0.26 -47.24 C 2.7 -46.05 4.75 -44.66 4.75 -41.76 L 4.75 -4.75 C 4.75 -2.24 2.57 -0.79 -0.2 -0.2 L -0.2 0.59 L 13.19 0.59 L 13.19 -21.77 L 26.85 -21.77 Z" stroke-linecap="round" />
</g>
</g>
</g>
<g transform="matrix(4.439303436751333 -2.5019525138183836 2.5019525138183845 4.439303436751334 308.27501642228174 279.24023663823743)" id="text-logo-1"  >
<g style=""  paint-order="stroke"   >
		<g transform="matrix(1 0 0 1 0 0)" id="b2fa7c7a-8dd4-4da5-b8a2-44830bf90ca3-path-0"  >
<linearGradient id="SVGID_135290" gradientUnits="userSpaceOnUse" gradientTransform="matrix(1 0 0 1 0 -47.83)"  x1="0" y1="-10.16919388043577" x2="0" y2="64.38114402596386">
<stop offset="0%" style="stop-color:rgb(91,36,122);stop-opacity: 1"/>
<stop offset="56.99999999999999%" style="stop-color:rgb(77,216,229);stop-opacity: 1"/>
</linearGradient>
<path style="stroke: rgb(255,255,255); stroke-width: 0; stroke-dasharray: none; stroke-linecap: butt; stroke-dashoffset: 0; stroke-linejoin: miter; stroke-miterlimit: 4; fill: url(#SVGID_135290); fill-rule: nonzero; opacity: 1;"  paint-order="stroke"  transform=" translate(-6.695, 23.619999999999997)" d="M 0 -0.2 L 0 0.59 L 13.39 0.59 L 13.39 -47.83 L 0.46 -47.76 L 0.46 -47.24 C 2.9 -46.05 4.95 -44.66 4.95 -41.76 L 4.95 -4.75 C 4.95 -2.24 2.77 -0.79 0 -0.2 Z" stroke-linecap="round" />
</g>
</g>
</g>
<g transform="matrix(4.754661065026845 -1.833133803537575 1.8331338035375753 4.754661065026846 468.51462527655434 203.7771203030021)" id="text-logo-2"  >
<g style=""  paint-order="stroke"   >
		<g transform="matrix(1 0 0 1 0 0)" id="33049c39-88bc-42de-b6c5-b07c8bc6dae4-path-0"  >
<linearGradient id="SVGID_135291" gradientUnits="userSpaceOnUse" gradientTransform="matrix(1 0 0 1 -0.6600000000000001 -47.76)"  x1="0.6597375035964603" y1="-10.235167630795416" x2="0.6597375035964603" y2="64.31517027560422">
<stop offset="0%" style="stop-color:rgb(91,36,122);stop-opacity: 1"/>
<stop offset="56.99999999999999%" style="stop-color:rgb(77,216,229);stop-opacity: 1"/>
</linearGradient>
<path style="stroke: rgb(255,255,255); stroke-width: 0; stroke-dasharray: none; stroke-linecap: butt; stroke-dashoffset: 0; stroke-linejoin: miter; stroke-miterlimit: 4; fill: url(#SVGID_135291); fill-rule: nonzero; opacity: 1;"  paint-order="stroke"  transform=" translate(-16.99, 23.584999999999997)" d="M -0.66 0.59 L 29.95 0.59 L 34.64 -13.39 L 33.32 -14.05 C 31.73 -9.5 27.91 -6 24.15 -6 L 14.51 -6 L 14.51 -47.76 L -0.33 -47.76 C 3.96 -45.98 6.66 -43.48 6.53 -39.78 L 6.53 -6.93 C 6.53 -3.83 2.84 0 -0.66 0.59 Z" stroke-linecap="round" />
</g>
</g>
</g>
<g transform="matrix(5.013344622755041 -0.9129934711965073 0.9129934711965074 5.013344622755042 673.142588215032 147.38736944909226)" id="text-logo-3"  >
<g style=""  paint-order="stroke"   >
		<g transform="matrix(1 0 0 1 0 0)" id="6347d2dd-e9a3-43bc-89a1-93a4e6ea706b-path-0"  >
<linearGradient id="SVGID_135292" gradientUnits="userSpaceOnUse" gradientTransform="matrix(1 0 0 1 -0.6600000000000001 -47.76)"  x1="0.6597375035964603" y1="-10.235167630795416" x2="0.6597375035964603" y2="64.31517027560422">
<stop offset="0%" style="stop-color:rgb(91,36,122);stop-opacity: 1"/>
<stop offset="56.99999999999999%" style="stop-color:rgb(77,216,229);stop-opacity: 1"/>
</linearGradient>
<path style="stroke: rgb(255,255,255); stroke-width: 0; stroke-dasharray: none; stroke-linecap: butt; stroke-dashoffset: 0; stroke-linejoin: miter; stroke-miterlimit: 4; fill: url(#SVGID_135292); fill-rule: nonzero; opacity: 1;"  paint-order="stroke"  transform=" translate(-16.99, 23.584999999999997)" d="M -0.66 0.59 L 29.95 0.59 L 34.64 -13.39 L 33.32 -14.05 C 31.73 -9.5 27.91 -6 24.15 -6 L 14.51 -6 L 14.51 -47.76 L -0.33 -47.76 C 3.96 -45.98 6.66 -43.48 6.53 -39.78 L 6.53 -6.93 C 6.53 -3.83 2.84 0 -0.66 0.59 Z" stroke-linecap="round" />
</g>
</g>
</g>
<g transform="matrix(5.095498818303117 0.05543624830261118 -0.05543624830261118 5.095498818303117 877.6205145209981 130.31625331388068)" id="text-logo-4"  >
<g style=""  paint-order="stroke"   >
		<g transform="matrix(1 0 0 1 0 0)" id="7cc1df71-f3e3-46e0-901d-f25997e56775-path-0"  >
<linearGradient id="SVGID_135293" gradientUnits="userSpaceOnUse" gradientTransform="matrix(1 0 0 1 -0.5899999999999999 -48.95)"  x1="0.5937637532368107" y1="-9.047640124321788" x2="0.5937637532368107" y2="65.50269778207785">
<stop offset="0%" style="stop-color:rgb(91,36,122);stop-opacity: 1"/>
<stop offset="56.99999999999999%" style="stop-color:rgb(77,216,229);stop-opacity: 1"/>
</linearGradient>
<path style="stroke: rgb(255,255,255); stroke-width: 0; stroke-dasharray: none; stroke-linecap: butt; stroke-dashoffset: 0; stroke-linejoin: miter; stroke-miterlimit: 4; fill: url(#SVGID_135293); fill-rule: nonzero; opacity: 1;"  paint-order="stroke"  transform=" translate(-15.475000000000001, 23.55)" d="M 22.63 -31.01 L 23.35 -30.61 C 25.53 -34.24 27.91 -37.34 30.81 -39.65 C 27.31 -45.65 22.23 -48.95 16.3 -48.95 C 7.78 -48.95 2.24 -42.62 2.24 -36.35 C 2.24 -20.78 23.35 -23.02 23.35 -14.98 C 23.35 -10.09 20.58 -5.87 15.5 -5.87 C 12.01 -5.87 10.62 -6.8 9.04 -8.31 C 7.26 -10.16 7.72 -13.19 9.3 -17.02 L 8.25 -18.14 C 5.54 -14.98 2.7 -12.27 -0.59 -10.29 C 1.58 -4.16 7.39 1.85 15.31 1.85 C 23.35 1.85 31.54 -5.34 31.54 -14.45 C 31.54 -31.54 9.9 -26.85 9.9 -35.82 C 9.9 -38.59 12.54 -42.16 16.1 -42.16 C 18.54 -42.16 20.58 -40.9 21.97 -38.66 C 23.55 -35.82 23.55 -33.18 22.63 -31.01 Z" stroke-linecap="round" />
</g>
</g>
</g>
<g transform="matrix(0.9886019135660279 0.15055316832796292 -0.15055316832796292 0.9886019135660279 355.3337616461672 96.8681444428363)" id="text-logo-5"  >
<g style=""  paint-order="stroke"   >
		<g transform="matrix(1 0 0 1 0 0)" id="8535fdef-3f7d-4c3a-9aca-ccd80b847be4-path-0"  >
<linearGradient id="SVGID_135294" gradientUnits="userSpaceOnUse" gradientTransform="matrix(1 0 0 1 0 0)"  x1="-13.194750071929146" y1="-58.00016289117892" x2="-13.194750071929146" y2="16.550175015220717">
<stop offset="0%" style="stop-color:rgb(91,36,122);stop-opacity: 1"/>
<stop offset="56.99999999999999%" style="stop-color:rgb(77,216,229);stop-opacity: 1"/>
</linearGradient>
<path style="stroke: rgb(255,255,255); stroke-width: 0; stroke-dasharray: none; stroke-linecap: butt; stroke-dashoffset: 0; stroke-linejoin: miter; stroke-miterlimit: 4; fill: url(#SVGID_135294); fill-rule: nonzero; opacity: 1;"  paint-order="stroke"  transform=" translate(0, 0)" d="" stroke-linecap="round" />
</g>
</g>
</g>
<g transform="matrix(4.878346719343726 1.4727235554653986 -1.4727235554653986 4.878346719343726 1176.3566197033883 199.88165839126248)" id="text-logo-6"  >
<g style=""  paint-order="stroke"   >
		<g transform="matrix(1 0 0 1 0 0)" id="af97bee4-657d-42b2-918a-2a1ede288ac3-path-0"  >
<linearGradient id="SVGID_135295" gradientUnits="userSpaceOnUse" gradientTransform="matrix(1 0 0 1 -6.07 -47.83)"  x1="6.0695850330873995" y1="-10.16919388043577" x2="6.0695850330873995" y2="64.38114402596386">
<stop offset="0%" style="stop-color:rgb(91,36,122);stop-opacity: 1"/>
<stop offset="56.99999999999999%" style="stop-color:rgb(77,216,229);stop-opacity: 1"/>
</linearGradient>
<path style="stroke: rgb(255,255,255); stroke-width: 0; stroke-dasharray: none; stroke-linecap: butt; stroke-dashoffset: 0; stroke-linejoin: miter; stroke-miterlimit: 4; fill: url(#SVGID_135295); fill-rule: nonzero; opacity: 1;"  paint-order="stroke"  transform=" translate(-14.05, 18.375)" d="M -6.07 9.76 L -5.21 11.08 C -1.12 6.73 3.56 2.97 9.24 0.53 L 12.93 -13.52 L 21.64 -13.52 L 23.49 -3.76 C 23.95 -1.52 21.84 -0.33 18.93 0.59 L 34.17 0.59 L 20.91 -47.83 L 8.71 -47.83 C 10.23 -45.13 10.75 -42.36 10.23 -39.65 L 3.36 -9.04 C 1.58 -1.78 -1.98 4.16 -6.07 9.76 Z M 13.72 -19.66 L 16.69 -31.93 L 19.99 -19.66 Z" stroke-linecap="round" />
</g>
</g>
</g>
<g transform="matrix(4.48173918172746 2.4251175831128737 -2.425117583112874 4.48173918172746 1417.5048654866664 266.7132816769814)" id="text-logo-7"  >
<g style=""  paint-order="stroke"   >
		<g transform="matrix(1 0 0 1 0 0)" id="ff5f9fdd-cb76-467b-86ee-19c57d722280-path-0"  >
<linearGradient id="SVGID_135296" gradientUnits="userSpaceOnUse" gradientTransform="matrix(1 0 0 1 0.6600000000000001 -48.82)"  x1="-0.6597375035964603" y1="-9.179587625041083" x2="-0.6597375035964603" y2="65.37075028135855">
<stop offset="0%" style="stop-color:rgb(91,36,122);stop-opacity: 1"/>
<stop offset="56.99999999999999%" style="stop-color:rgb(77,216,229);stop-opacity: 1"/>
</linearGradient>
<path style="stroke: rgb(255,255,255); stroke-width: 0; stroke-dasharray: none; stroke-linecap: butt; stroke-dashoffset: 0; stroke-linejoin: miter; stroke-miterlimit: 4; fill: url(#SVGID_135296); fill-rule: nonzero; opacity: 1;"  paint-order="stroke"  transform=" translate(-19.200000000000003, 24.375)" d="M 6.99 -6.66 L 26.85 -48.36 L 37.74 -48.82 L 37.34 -48.23 C 34.17 -46.12 31.6 -42.62 29.29 -38.2 L 10.69 0.07 L 0.66 -0.66 L 0.86 -1.39 C 3.89 -2.64 5.87 -4.35 6.99 -6.66 Z" stroke-linecap="round" />
</g>
</g>
</g>
<g transform="matrix(3.9014325492879673 3.2781100421295695 -3.27811004212957 3.901432549287967 1600.4300826084507 398.66500456635254)" id="text-logo-8"  >
<g style=""  paint-order="stroke"   >
		<g transform="matrix(1 0 0 1 0 -3.55271e-15)" id="f2ef8fbc-0ea7-44bb-a037-1d97f161f7d5-path-0"  >
<linearGradient id="SVGID_135297" gradientUnits="userSpaceOnUse" gradientTransform="matrix(1 0 0 1 1.25 -48.42)"  x1="-1.2535012568332604" y1="-9.575430127198956" x2="-1.2535012568332604" y2="64.97490777920068">
<stop offset="0%" style="stop-color:rgb(91,36,122);stop-opacity: 1"/>
<stop offset="56.99999999999999%" style="stop-color:rgb(77,216,229);stop-opacity: 1"/>
</linearGradient>
<path style="stroke: rgb(255,255,255); stroke-width: 0; stroke-dasharray: none; stroke-linecap: butt; stroke-dashoffset: 0; stroke-linejoin: miter; stroke-miterlimit: 4; fill: url(#SVGID_135297); fill-rule: nonzero; opacity: 1;"  paint-order="stroke"  transform=" translate(-17.515, 23.385)" d="M 19.2 1.65 C 25.6 1.65 30.74 -1.72 33.78 -7.78 L 23.42 -19.07 L 22.83 -18.01 C 26.39 -10.89 21.97 -5.15 18.67 -5.15 C 13.06 -5.15 10.29 -12.4 10.29 -23.42 C 10.29 -34.7 13.85 -41.63 19.2 -41.63 C 23.02 -41.63 25.99 -37.21 23.29 -31.47 L 23.68 -30.68 L 33.25 -38.07 C 30.22 -44.33 25.99 -48.42 19.2 -48.42 C 8.51 -48.42 1.25 -38.92 1.25 -23.42 C 1.25 -8.31 7.98 1.65 19.2 1.65 Z" stroke-linecap="round" />
</g>
</g>
</g>
<g transform="matrix(5.095800367454983 0 0 5.095800367454983 902.2312258780984 1940.990631744871)" id="tagline-dc5f8e42-d184-4533-a773-08a20d2c5196-logo"  >
<g style=""  paint-order="stroke"   >
		<g transform="matrix(1 0 0 1 -5.684342e-14 0)" id="tagline-dc5f8e42-d184-4533-a773-08a20d2c5196-logo-path-0"  >
<linearGradient id="SVGID_135298" gradientUnits="userSpaceOnUse" gradientTransform="matrix(1 0 0 1 0.7700000000000102 -22.78)"  x1="156.592" y1="-5.348479999999995" x2="156.592" y2="30.81152">
<stop offset="0%" style="stop-color:rgb(250,217,97);stop-opacity: 1"/>
<stop offset="69%" style="stop-color:rgb(247,107,28);stop-opacity: 1"/>
</linearGradient>
<path style="stroke: rgb(255,255,255); stroke-width: 0; stroke-dasharray: none; stroke-linecap: butt; stroke-dashoffset: 0; stroke-linejoin: miter; stroke-miterlimit: 4; fill: url(#SVGID_135298); fill-rule: nonzero; opacity: 1;"  paint-order="stroke"  transform=" translate(-157.28000000000003, 11.200000000000001)" d="M 1.47 -14.69 L 4.61 -14.72 L 5.38 -22.4 L 0.77 -22.4 Z M 6.88 -14.69 L 10.02 -14.72 L 10.78 -22.4 L 6.18 -22.4 Z M 19.78 -4.26 C 19.78 -1.5 19.46 -0.96 18.72 -0.45 L 19.01 0 L 25.57 0 C 31.07 0 33.44 -3.17 33.44 -11.2 C 33.44 -19.04 31.07 -22.4 25.57 -22.4 L 19.01 -22.4 L 18.72 -21.95 C 19.46 -21.44 19.78 -20.9 19.78 -18.14 Z M 24.51 -4.26 L 24.51 -18.14 C 24.51 -18.59 24.51 -18.98 24.54 -19.33 L 25.44 -19.33 C 27.26 -19.33 28.64 -17.73 28.64 -11.04 C 28.64 -4.35 27.26 -3.07 25.44 -3.07 L 24.54 -3.07 C 24.51 -3.42 24.51 -3.81 24.51 -4.26 Z M 42.11 -11.2 C 42.11 -4.16 45.09 0.38 49.63 0.38 C 54.11 0.38 57.09 -4.16 57.09 -11.2 C 57.09 -18.05 54.11 -22.78 49.63 -22.78 C 45.09 -22.78 42.11 -18.05 42.11 -11.2 Z M 46.91 -11.04 C 46.91 -17.12 47.71 -19.65 49.63 -19.65 C 51.49 -19.65 52.29 -17.12 52.29 -11.04 C 52.29 -5.09 51.49 -2.75 49.63 -2.75 C 47.71 -2.75 46.91 -5.09 46.91 -11.04 Z M 75.46 0 L 80.16 0 L 80.42 -0.45 C 79.68 -0.96 79.36 -1.5 79.36 -4.26 L 79.36 -18.14 C 79.36 -20.9 79.68 -21.44 80.42 -21.95 L 80.16 -22.4 L 75.46 -22.4 L 75.17 -21.95 C 75.9 -21.44 76.22 -20.9 76.22 -18.14 L 76.22 -10.46 L 72 -22.4 L 65.63 -22.4 L 65.38 -21.95 C 66.11 -21.44 66.43 -20.9 66.43 -18.14 L 66.43 -4.26 C 66.43 -1.5 66.11 -0.96 65.38 -0.45 L 65.63 0 L 70.34 0 L 70.62 -0.45 C 69.89 -0.96 69.57 -1.5 69.57 -4.26 L 69.57 -16.61 Z M 89.41 -14.69 L 92.54 -14.72 L 93.31 -22.4 L 88.7 -22.4 Z M 105.79 -4.26 C 105.79 -1.5 105.47 -0.96 104.74 -0.45 L 105.02 0 L 111.3 0 L 111.58 -0.45 C 110.85 -0.96 110.53 -1.5 110.53 -4.26 L 110.53 -19.33 C 113.09 -19.3 113.7 -19.01 114.4 -18.24 L 114.91 -18.53 L 114.56 -22.4 L 101.82 -22.4 L 101.44 -18.53 L 101.98 -18.24 C 102.69 -19.01 103.26 -19.3 105.79 -19.33 Z M 139.23 -16.45 C 139.3 -8.9 147.46 -8.96 147.46 -4.67 C 147.46 -3.26 146.59 -2.75 145.41 -2.75 C 144.19 -2.75 143.3 -3.3 143.26 -5.34 C 143.26 -6.69 143.62 -6.91 144 -7.26 L 143.71 -7.71 L 138.78 -7.71 L 138.5 -7.26 C 138.94 -6.98 139.39 -6.53 139.39 -4.99 C 139.39 -1.76 141.5 0.38 145.25 0.38 C 150.21 0.38 151.39 -2.78 151.39 -5.31 C 151.39 -11.74 143.04 -13.22 143.04 -17.09 C 143.04 -18.62 143.62 -19.65 145.09 -19.65 C 146.14 -19.65 147.1 -18.91 147.14 -17.06 C 147.17 -15.71 146.78 -15.49 146.4 -15.14 L 146.69 -14.69 L 151.62 -14.69 L 151.9 -15.14 C 151.46 -15.42 151.01 -15.87 151.01 -17.41 C 151.01 -20.64 149.41 -22.78 145.44 -22.78 C 140.83 -22.78 139.2 -20.06 139.23 -16.45 Z M 166.34 0 L 169.79 -14.46 L 173.22 0 L 176.9 0 L 180.64 -18.53 C 181.15 -21.06 181.98 -21.7 182.43 -21.95 L 182.14 -22.4 L 175.87 -22.4 L 175.58 -21.95 C 176.26 -21.41 177.02 -20.8 176.58 -18.5 L 174.72 -8.67 L 171.58 -22.4 L 168 -22.4 L 164.86 -8.7 L 163.01 -18.5 C 162.56 -20.8 163.33 -21.41 164 -21.95 L 163.71 -22.4 L 157.12 -22.4 L 156.83 -21.95 C 157.28 -21.7 158.11 -21.06 158.62 -18.53 L 162.37 0 Z M 190.37 0 L 201.92 0 L 202.24 -3.87 L 201.79 -4.16 C 201.15 -3.36 200.64 -3.07 198.21 -3.07 L 195.9 -3.07 C 195.87 -3.42 195.87 -3.81 195.87 -4.26 L 195.87 -10.05 L 201.28 -9.66 L 201.28 -12.74 L 195.87 -12.35 L 195.87 -18.14 C 195.87 -18.59 195.87 -18.98 195.9 -19.33 L 198.21 -19.33 C 200.64 -19.33 201.15 -19.04 201.79 -18.24 L 202.24 -18.53 L 201.92 -22.4 L 190.37 -22.4 L 190.08 -21.95 C 190.82 -21.44 191.14 -20.9 191.14 -18.14 L 191.14 -4.26 C 191.14 -1.5 190.82 -0.96 190.08 -0.45 Z M 211.46 -4.26 C 211.46 -1.5 211.14 -0.96 210.4 -0.45 L 210.69 0 L 216.96 0 L 217.25 -0.45 C 216.51 -0.96 216.19 -1.5 216.19 -4.26 L 216.19 -6.21 L 219.87 -6.21 L 219.87 -4.26 C 219.87 -1.5 219.55 -0.96 218.82 -0.45 L 219.1 0 L 225.38 0 L 225.66 -0.45 C 224.93 -0.96 224.61 -1.5 224.61 -4.26 L 224.61 -11.78 C 224.61 -20.1 222.34 -22.78 218.05 -22.78 C 213.76 -22.78 211.46 -20.1 211.46 -11.78 Z M 216.19 -9.28 L 216.19 -11.52 C 216.19 -17.92 216.35 -19.39 218.05 -19.39 C 219.74 -19.39 219.87 -17.92 219.87 -11.52 L 219.87 -9.28 Z M 235.3 -4.26 C 235.3 -1.5 234.98 -0.96 234.24 -0.45 L 234.53 0 L 240.8 0 L 241.09 -0.45 C 240.35 -0.96 240.03 -1.5 240.03 -4.26 L 240.03 -19.33 C 242.59 -19.3 243.2 -19.01 243.9 -18.24 L 244.42 -18.53 L 244.06 -22.4 L 231.33 -22.4 L 230.94 -18.53 L 231.49 -18.24 C 232.19 -19.01 232.77 -19.3 235.3 -19.33 Z M 268.67 -4.26 C 268.67 -1.5 268.35 -0.96 267.62 -0.45 L 267.9 0 L 274.18 0 L 274.46 -0.45 C 273.73 -0.96 273.41 -1.5 273.41 -4.26 L 273.41 -18.14 C 273.41 -20.9 273.73 -21.44 274.46 -21.95 L 274.18 -22.4 L 267.9 -22.4 L 267.62 -21.95 C 268.35 -21.44 268.67 -20.9 268.67 -18.14 Z M 286.53 -4.26 C 286.53 -1.5 286.21 -0.96 285.47 -0.45 L 285.76 0 L 292.03 0 L 292.32 -0.45 C 291.58 -0.96 291.26 -1.5 291.26 -4.26 L 291.26 -19.33 C 293.82 -19.3 294.43 -19.01 295.14 -18.24 L 295.65 -18.53 L 295.3 -22.4 L 282.56 -22.4 L 282.18 -18.53 L 282.72 -18.24 C 283.42 -19.01 284 -19.3 286.53 -19.33 Z M 304.48 -14.69 L 307.62 -14.72 L 308.38 -22.4 L 303.78 -22.4 Z M 309.89 -14.69 L 313.02 -14.72 L 313.79 -22.4 L 309.18 -22.4 Z" stroke-linecap="round" />
</g>
</g>
</g>
</svg>